<svg xmlns="http://www.w3.org/2000/svg" viewBox="0 0 48 48"><defs><style>.cls-1{fill:#c6c3d8}.cls-3{fill:#edebf2}</style></defs><g id="Finance"><path class="cls-1" d="M12 4v5H6V4a3 3 0 0 1 6 0z"/><path d="M40 4v31l-3.5-2-3.5 2-3.49-2L26 35l-3.5-2-3.5 2-3.5-2-3.5 2V4a3 3 0 0 0-3-3h28a3 3 0 0 1 3 3z" style="fill:#dad7e5"/><path class="cls-3" d="M40 4v28l-3.5-2-3.5 2-3.49-2L26 32l-3.5-2-3.5 2-3.5-2-.51.29C15 2.16 15.32 2.91 14.19 1H37a3 3 0 0 1 3 3z"/><path d="M47 14c0 5.47.64 9.88-3.73 13.88A12.05 12.05 0 0 1 40 30a11.55 11.55 0 0 1-7-10.62V14l7-2z" style="fill:#9dcc6b"/><path d="M47 14c0 5.47.64 9.88-3.73 13.88L43 28a11.55 11.55 0 0 1-7-10.62v-4.24L40 12z" style="fill:#b5e08c"/><path class="cls-3" d="M36.29 20.71a1 1 0 0 1 1.42-1.42l1.29 1.3 3.29-3.3a1 1 0 0 1 1.42 1.42c-5.45 5.44-4.17 5.29-7.42 2z"/><path class="cls-1" d="M30 9H16a1 1 0 0 1 0-2h14a1 1 0 0 1 0 2z"/><rect x="1" y="17" width="24" height="30" rx="2" style="fill:#374f68"/><path d="M25 19v25H7a3 3 0 0 1-3-3V17h19a2 2 0 0 1 2 2z" style="fill:#425b72"/><path style="fill:#9fdbf3" d="M5 21h16v6H5z"/><path class="cls-3" d="M14 43h-2a1 1 0 0 1 0-2h2a1 1 0 0 1 0 2zM21 43h-2a1 1 0 0 1 0-2h2a1 1 0 0 1 0 2zM7 43H5a1 1 0 0 1 0-2h2a1 1 0 0 1 0 2zM14 38h-2a1 1 0 0 1 0-2h2a1 1 0 0 1 0 2zM21 38h-2a1 1 0 0 1 0-2h2a1 1 0 0 1 0 2zM7 38H5a1 1 0 0 1 0-2h2a1 1 0 0 1 0 2zM14 33h-2a1 1 0 0 1 0-2h2a1 1 0 0 1 0 2zM21 33h-2a1 1 0 0 1 0-2h2a1 1 0 0 1 0 2zM7 33H5a1 1 0 0 1 0-2h2a1 1 0 0 1 0 2z"/><path d="M21 21v4h-9a4 4 0 0 1-4-4z" style="fill:#b2e5fb"/></g></svg>